<svg xmlns="http://www.w3.org/2000/svg" width="35.354" height="41.512" viewBox="0 0 35.354 41.512">
  <g id="refund" transform="translate(-37.974)">
    <path id="Path_100" data-name="Path 100" d="M155.7,167.836h1.122a.406.406,0,1,1,0,.813h-1.778a.608.608,0,0,0,0,1.216h.7v.283a.608.608,0,0,0,1.216,0v-.289a1.623,1.623,0,0,0-.143-3.239H155.7a.407.407,0,1,1,0-.813h1.778a.608.608,0,0,0,0-1.216h-.514v-.283a.608.608,0,0,0-1.216,0v.283H155.7a1.623,1.623,0,1,0,0,3.245Z" transform="translate(-106.693 -150.428)" fill="#121a25"/>
    <path id="Path_101" data-name="Path 101" d="M122.2,137.92a4.665,4.665,0,0,0,3.725-2.029,8.2,8.2,0,0,0,0-9.354,4.434,4.434,0,0,0-7.45,0,8.2,8.2,0,0,0,0,9.354A4.664,4.664,0,0,0,122.2,137.92Zm-3.972-6.706c0-3.027,1.782-5.49,3.972-5.49s3.973,2.463,3.973,5.49-1.782,5.49-3.973,5.49S118.232,134.241,118.232,131.214Z" transform="translate(-72.633 -114.413)" fill="#121a25"/>
    <path id="Path_102" data-name="Path 102" d="M64.646,13.772h-.761V12.23a.894.894,0,0,0-1.417-.726l-1.3.936V7.507L67.789,9.27a5.465,5.465,0,0,0,3.439,5.907.608.608,0,0,0,1.2.147l.812-3.05A2.717,2.717,0,0,0,71.311,8.95l-2.653-.707h0L61.169,6.248V2.716A2.719,2.719,0,0,0,58.452,0H40.69a2.719,2.719,0,0,0-2.716,2.716V8.391a.608.608,0,1,0,1.216,0V6.036a5.472,5.472,0,0,0,4.82-4.82H55.132a5.472,5.472,0,0,0,4.82,4.82v7.28l-3.345,2.409a1.375,1.375,0,0,0,0,2.232l3.345,2.409v7.2a5.472,5.472,0,0,0-4.82,4.82H44.01a5.472,5.472,0,0,0-4.82-4.82V10.824a.608.608,0,0,0-1.216,0V30.885A2.715,2.715,0,0,0,40.69,33.6h2.864a2.7,2.7,0,0,0,.293,1.983,2.727,2.727,0,0,0,.426.557l.047.046.024.023a2.7,2.7,0,0,0,1.154.636l2.653.707.021.005,14.49,3.86q.132.035.265.057a2.717,2.717,0,0,0,3.058-1.982l.707-2.653,0-.013,1.059-3.974a.608.608,0,0,0-1.175-.313l-.914,3.432a5.465,5.465,0,0,0-5.9,3.417L49.02,36.527a5.46,5.46,0,0,0-.366-2.925h9.8a2.715,2.715,0,0,0,2.716-2.716V21.241l1.3.936a.894.894,0,0,0,1.417-.726V19.909h.761a3.391,3.391,0,0,1,2.736,1.506,5.879,5.879,0,0,1,1.084,3.422,5.065,5.065,0,0,1-5.3,5.06.639.639,0,0,0-.154,1.265,8.457,8.457,0,0,0,7.041-1.788,8.8,8.8,0,0,0,3.207-6.828A8.705,8.705,0,0,0,64.646,13.772Zm4.328-4.186L71,10.125a1.5,1.5,0,0,1,1.064,1.835l-.539,2.024A4.255,4.255,0,0,1,68.974,9.586ZM39.19,4.81V2.716a1.5,1.5,0,0,1,1.5-1.5h2.094A4.256,4.256,0,0,1,39.19,4.81Zm20.762,0a4.256,4.256,0,0,1-3.594-3.594h2.133a1.5,1.5,0,0,1,1.461,1.5ZM40.69,32.385a1.5,1.5,0,0,1-1.5-1.5V28.791a4.256,4.256,0,0,1,3.594,3.594H40.69Zm7.145,3.826-2.023-.539a1.5,1.5,0,0,1-1.063-1.835l.063-.236H47.3A4.247,4.247,0,0,1,47.835,36.211ZM62.728,37.7a4.212,4.212,0,0,1,2.622-.544l-.539,2.025a1.488,1.488,0,0,1-.7.911,1.489,1.489,0,0,1-1.138.152L60.952,39.7A4.214,4.214,0,0,1,62.728,37.7Zm-2.776-6.815a1.5,1.5,0,0,1-1.5,1.5H56.358a4.256,4.256,0,0,1,3.594-3.594v2.094Zm9.33-2.451a7.4,7.4,0,0,1-1.61,1.009l.065-.061a6.226,6.226,0,0,0,1.946-4.546c0-2.955-1.925-6.144-5.036-6.144h-.839a1.139,1.139,0,0,0-1.138,1.138v.992l-1.755-1.264,0,0L57.318,16.97a.159.159,0,0,1,0-.259l3.59-2.585.017-.012,1.745-1.257v.993a1.139,1.139,0,0,0,1.138,1.138h.839a7.488,7.488,0,0,1,7.4,7.558A7.586,7.586,0,0,1,69.282,28.435Z" transform="translate(0)" fill="#121a25"/>
  </g>
</svg>
