<svg xmlns="http://www.w3.org/2000/svg" width="35.402" height="41.512" viewBox="0 0 35.402 41.512">
  <g id="shield" transform="translate(0 0)">
    <path id="Path_75" data-name="Path 75" d="M72.44,7.168A69.052,69.052,0,0,1,55.826.121a.873.873,0,0,0-.888,0A67.162,67.162,0,0,1,38.323,7.168a.873.873,0,0,0-.642.842v8.922a25.668,25.668,0,0,0,7.795,18.754c3.828,3.751,8.287,5.825,9.906,5.825s6.078-2.074,9.906-5.825a25.668,25.668,0,0,0,7.794-18.754V8.01A.873.873,0,0,0,72.44,7.168Zm-1.1,9.764a23.956,23.956,0,0,1-7.27,17.506c-3.765,3.689-7.789,5.326-8.684,5.326s-4.92-1.638-8.684-5.326a23.956,23.956,0,0,1-7.27-17.506V8.673A68.771,68.771,0,0,0,55.382,1.885,70.947,70.947,0,0,0,71.336,8.673Z" transform="translate(-37.681 0)" fill="#121a25"/>
    <path id="Path_76" data-name="Path 76" d="M86.83,99.5A.873.873,0,0,0,85.7,99c-1.56.615-3.161,1.18-4.759,1.682a.873.873,0,0,0-.612.833v3.372a.873.873,0,1,0,1.746,0v-2.734c1.433-.464,2.865-.977,4.265-1.528A.873.873,0,0,0,86.83,99.5Z" transform="translate(-76.869 -90.921)" fill="#121a25"/>
    <path id="Path_77" data-name="Path 77" d="M171.078,87.957a.874.874,0,0,0,.35-.073l.016-.007a.873.873,0,1,0-.705-1.6l-.014.006a.873.873,0,0,0,.353,1.672Z" transform="translate(-159.458 -79.216)" fill="#121a25"/>
    <path id="Path_78" data-name="Path 78" d="M309.9,345.67a.873.873,0,0,0-1.209.253,21.256,21.256,0,0,1-2.509,3.134,22.316,22.316,0,0,1-2.5,2.228.873.873,0,1,0,1.059,1.389,24.077,24.077,0,0,0,2.7-2.4,22.985,22.985,0,0,0,2.716-3.393A.873.873,0,0,0,309.9,345.67Z" transform="translate(-281.793 -317.514)" fill="#121a25"/>
    <path id="Path_79" data-name="Path 79" d="M277.049,432.086l-.05.029a.873.873,0,1,0,.875,1.511l.058-.034a.873.873,0,1,0-.883-1.507Z" transform="translate(-257.195 -396.943)" fill="#121a25"/>
    <path id="Path_80" data-name="Path 80" d="M127.667,161.038a2.84,2.84,0,0,0-4.016,4.016l5.156,5.156a2.84,2.84,0,0,0,4.016,0l10.764-10.764a2.84,2.84,0,0,0-4.016-4.016l-8.756,8.756Zm13.139-4.373a1.093,1.093,0,1,1,1.546,1.546l-10.764,10.764a1.094,1.094,0,0,1-1.546,0l-5.156-5.156a1.093,1.093,0,0,1,1.546-1.546l3.766,3.766a.873.873,0,0,0,1.235,0Z" transform="translate(-115.918 -142.064)" fill="#121a25"/>
  </g>
</svg>
