<svg xmlns="http://www.w3.org/2000/svg" width="38.02" height="41.512" viewBox="0 0 38.02 41.512">
  <path id="support" d="M51.769,17.16h-.1V14.642a14.642,14.642,0,1,0-29.284,0V17.16h-.616a4.184,4.184,0,0,0-4.007,4.316V27.9a4.059,4.059,0,0,0,3.954,4.16h3.855a.976.976,0,0,0,.929-1.021c0-.019,0-.039,0-.058V18.393c0-.616-.36-1.233-.925-1.233h-1.13V14.642a12.587,12.587,0,0,1,25.174,0V17.16h-1.13c-.565,0-.925.616-.925,1.233V30.98a.976.976,0,0,0,.867,1.074l.058,0h1.182l-.1.154a8.117,8.117,0,0,1-6.525,3.237,5.086,5.086,0,0,0-10.07.976A5.138,5.138,0,0,0,38.1,41.512a5.292,5.292,0,0,0,3.7-1.593,4.521,4.521,0,0,0,1.233-2.466A10.172,10.172,0,0,0,51.2,33.394l.976-1.439a3.5,3.5,0,0,0,3.6-3.545V21.989C55.776,19.78,54.132,17.16,51.769,17.16ZM24.437,30H21.765a2,2,0,0,1-1.954-2.052c0-.018,0-.036,0-.055V21.475a2.13,2.13,0,0,1,1.952-2.261h2.672Zm15.875,8.477a3.031,3.031,0,0,1-2.209.976,3.134,3.134,0,0,1-3.083-3.031,3.031,3.031,0,0,1,6.062,0v0A2.723,2.723,0,0,1,40.312,38.481Zm13.409-10.07C53.721,29.8,52.385,30,51.769,30H49.611V19.215h2.158c1.13,0,1.952,1.593,1.952,2.774Z" transform="translate(-17.756)" fill="#121a25"/>
</svg>
