<svg xmlns="http://www.w3.org/2000/svg" width="47.846" height="22" viewBox="0 0 47.846 22"><g transform="translate(-1677 -54)"><path d="M16.84,8.082V6.091a4.725,4.725,0,1,0-9.449,0v4.725a.675.675,0,0,0,1.35,0V9.432h5.4V8.082h-5.4V6.091a3.375,3.375,0,0,1,6.75,0v4.691a.675.675,0,1,0,1.35,0V9.433h3.374V21.581H4.017V9.432H6.041V8.082H2.667V21.641a1.289,1.289,0,0,0,1.289,1.29h16.32a1.289,1.289,0,0,0,1.289-1.29V8.082Z" transform="translate(1674.333 52.634)" fill="#121a25"/><g transform="translate(426.846 -31)"><circle cx="11" cy="11" r="11" transform="translate(1276 85)" fill="#fb2525"/><text transform="translate(1283 101)" fill="#fff" font-size="14" font-family="OpenSans-Regular, Open Sans"><tspan x="0" y="0">1</tspan></text></g></g></svg>