<svg xmlns="http://www.w3.org/2000/svg" width="23.082" height="21.158" viewBox="0 0 23.082 21.158"><path d="M16.734,0a6.359,6.359,0,0,0-5.193,2.7A6.359,6.359,0,0,0,6.347,0,6.72,6.72,0,0,0,0,6.732c0,3.495,1.973,7.094,5.707,10.41a30.7,30.7,0,0,0,5.657,3.973.385.385,0,0,0,.353,0,30.706,30.706,0,0,0,5.655-3.973c3.736-3.315,5.709-6.915,5.709-10.41A6.72,6.72,0,0,0,16.734,0ZM11.541,20.336C10.128,19.556.769,14.109.769,6.732A5.931,5.931,0,0,1,6.347.769a5.589,5.589,0,0,1,4.858,2.843.4.4,0,0,0,.67,0A5.589,5.589,0,0,1,16.734.769a5.931,5.931,0,0,1,5.578,5.963c0,7.377-9.359,12.824-10.771,13.6Zm0,0" fill="#f51c1c"/></svg>