<svg xmlns="http://www.w3.org/2000/svg" width="24.403" height="20.204" viewBox="0 0 24.403 20.204"><path d="M17.484,35.514h0a6.858,6.858,0,0,0-5.282,2.44,6.765,6.765,0,0,0-5.282-2.44A6.919,6.919,0,0,0,0,42.434c0,6.549,11.429,12.943,11.893,13.19a.556.556,0,0,0,.618,0c.463-.247,11.893-6.549,11.893-13.19A6.919,6.919,0,0,0,17.484,35.514ZM12.2,54.388C10.41,53.338,1.236,47.747,1.236,42.434A5.684,5.684,0,0,1,6.919,36.75a5.56,5.56,0,0,1,4.757,2.564.649.649,0,0,0,1.05,0,5.684,5.684,0,0,1,10.441,3.12C23.168,47.809,13.993,53.369,12.2,54.388Z" transform="translate(0 -35.514)" fill="#f51c1c"/></svg>