<svg xmlns="http://www.w3.org/2000/svg" width="25.654" height="18.388" viewBox="0 0 25.654 18.388"><path d="M25.47,86.417l-3.334-3.334a.871.871,0,0,0-.62-.257H18.724a.476.476,0,0,0-.337.813l1.833,1.833H17.538l-3.77-3.77,3.77-3.77h2.683l-1.833,1.834a.476.476,0,0,0,.337.812h2.791a.881.881,0,0,0,.62-.257l3.335-3.335a.63.63,0,0,0,0-.887l-1.424-1.424a.376.376,0,1,0-.531.532l1.337,1.336L21.6,79.79a.124.124,0,0,1-.088.036H19.389l1.748-1.748a.526.526,0,0,0-.372-.9H17.382a.376.376,0,0,0-.266.11l-3.88,3.881-.9-.9,4.177-4.177a.633.633,0,0,1,.45-.187h3.8a.526.526,0,0,0,.372-.9L19.39,73.26h2.126a.125.125,0,0,1,.089.037l.665.665a.376.376,0,1,0,.531-.532l-.665-.664a.881.881,0,0,0-.621-.258H18.724a.476.476,0,0,0-.337.812l1.833,1.833H16.962a1.379,1.379,0,0,0-.982.407L11.8,79.737,7.627,75.56a1.38,1.38,0,0,0-.982-.407H.626A.627.627,0,0,0,0,75.78v1.525a.627.627,0,0,0,.626.626H6.069l3.77,3.77-3.77,3.77H.626A.627.627,0,0,0,0,86.1v1.525a.627.627,0,0,0,.626.626H6.644a1.384,1.384,0,0,0,.982-.407L11.8,83.666,13.135,85a.376.376,0,0,0,.531-.531L6.49,77.29a.376.376,0,0,0-.266-.11H.752V75.9H6.644a.633.633,0,0,1,.451.187L17.116,86.114a.376.376,0,0,0,.266.11h3.383a.526.526,0,0,0,.372-.9L19.39,83.578h2.126a.125.125,0,0,1,.089.037l3.246,3.246L21.6,90.107a.125.125,0,0,1-.089.037H19.39L21.137,88.4a.526.526,0,0,0-.372-.9h-3.8a.635.635,0,0,1-.451-.187l-1.605-1.605a.376.376,0,1,0-.531.531l1.606,1.606a1.382,1.382,0,0,0,.982.407H20.22l-1.833,1.833a.476.476,0,0,0,.337.813h2.792a.871.871,0,0,0,.62-.257L25.47,87.3A.628.628,0,0,0,25.47,86.417ZM7.1,87.311a.645.645,0,0,1-.451.187H.752V86.224H6.225a.376.376,0,0,0,.266-.11l3.88-3.88.9.9Z" transform="translate(0 -72.508)" fill="#f51c1c"/></svg>