<svg xmlns="http://www.w3.org/2000/svg" width="30.694" height="22" viewBox="0 0 30.694 22"><g transform="translate(0 -72.508)"><path d="M30.474,89.15,26.485,85.16a1.043,1.043,0,0,0-.742-.307H22.4a.57.57,0,0,0-.4.972l2.194,2.194H20.983l-4.511-4.511L20.983,79h3.21L22,81.191a.569.569,0,0,0,.4.972h3.34a1.054,1.054,0,0,0,.742-.307l3.99-3.99a.754.754,0,0,0,0-1.061l-1.7-1.7a.45.45,0,1,0-.636.636l1.6,1.6-3.886,3.885a.149.149,0,0,1-.105.043H23.2l2.091-2.091a.629.629,0,0,0-.445-1.075H20.8a.45.45,0,0,0-.318.132l-4.642,4.643-1.079-1.079,5-5a.757.757,0,0,1,.539-.223h4.55A.629.629,0,0,0,25.29,75.5L23.2,73.407h2.544a.15.15,0,0,1,.106.044l.8.8a.45.45,0,0,0,.636-.636l-.8-.795a1.054,1.054,0,0,0-.743-.308H22.4a.569.569,0,0,0-.4.972l2.193,2.193h-3.9a1.65,1.65,0,0,0-1.175.487l-5,5-5-5a1.651,1.651,0,0,0-1.175-.487H.749A.75.75,0,0,0,0,76.423v1.825A.75.75,0,0,0,.749,79H7.261l4.511,4.511L7.261,88.019H.749A.75.75,0,0,0,0,88.769v1.825a.75.75,0,0,0,.749.749h7.2a1.656,1.656,0,0,0,1.175-.487l5-5,1.593,1.593a.45.45,0,0,0,.636-.636L7.766,78.229a.449.449,0,0,0-.318-.132H.9V76.572H7.95a.758.758,0,0,1,.539.223l11.99,11.991a.45.45,0,0,0,.318.132h4.048a.629.629,0,0,0,.445-1.075L23.2,85.752h2.544a.149.149,0,0,1,.106.044l3.884,3.884-3.884,3.884a.149.149,0,0,1-.106.044H23.2l2.091-2.091a.629.629,0,0,0-.445-1.075H20.295a.76.76,0,0,1-.539-.223L17.835,88.3a.45.45,0,1,0-.636.636l1.921,1.921a1.653,1.653,0,0,0,1.175.486h3.9L22,93.536a.57.57,0,0,0,.4.972h3.34a1.042,1.042,0,0,0,.742-.307l3.989-3.989A.751.751,0,0,0,30.474,89.15ZM8.49,90.219a.772.772,0,0,1-.54.224H.9V88.918H7.447a.449.449,0,0,0,.318-.132l4.643-4.643,1.078,1.078Z" transform="translate(0 0)" fill="#121a25"/></g></svg>