<svg xmlns="http://www.w3.org/2000/svg" width="19.336" height="22" viewBox="0 0 19.336 22"><g transform="translate(-31)"><g transform="translate(34.867)"><path d="M126.8,0a5.8,5.8,0,1,0,5.8,5.8A5.807,5.807,0,0,0,126.8,0Zm0,10.312A4.512,4.512,0,1,1,131.312,5.8,4.517,4.517,0,0,1,126.8,10.312Z" transform="translate(-121)"/></g><g transform="translate(31 12.891)"><path d="M47.885,302.5a8.269,8.269,0,0,0-5.928-2.5H39.379a8.269,8.269,0,0,0-5.928,2.5A8.454,8.454,0,0,0,31,308.465a.645.645,0,0,0,.645.645H49.691a.645.645,0,0,0,.645-.645A8.454,8.454,0,0,0,47.885,302.5Zm-15.568,5.32a7.133,7.133,0,0,1,7.061-6.531h2.578a7.133,7.133,0,0,1,7.061,6.531Z" transform="translate(-31 -300)"/></g></g></svg>