<svg xmlns="http://www.w3.org/2000/svg" width="21.333" height="26.667" viewBox="0 0 21.333 26.667"><path d="M10.667,0A10.667,10.667,0,0,0,0,10.667C0,17.867,9.4,26,9.8,26.347a1.333,1.333,0,0,0,1.733,0c.467-.347,9.8-8.48,9.8-15.68A10.667,10.667,0,0,0,10.667,0Zm0,23.533c-2.84-2.667-8-8.413-8-12.867a8,8,0,1,1,16,0C18.667,15.12,13.507,20.88,10.667,23.533Zm0-18.2A5.333,5.333,0,1,0,14.438,6.9,5.333,5.333,0,0,0,10.667,5.333Zm0,8a2.667,2.667,0,1,1,1.886-.781A2.667,2.667,0,0,1,10.667,13.333Z" fill="#fafafa"/></svg>