<svg xmlns="http://www.w3.org/2000/svg" width="26.571" height="26.494" viewBox="0 0 26.571 26.494"><path d="M23.278,14.614a4.2,4.2,0,0,1-.893-.16,12.587,12.587,0,0,1-1.747-.52,2.667,2.667,0,0,0-3.307,1.333l-.293.6A16.24,16.24,0,0,1,13.491,13.2a16.24,16.24,0,0,1-2.667-3.547l.56-.373a2.667,2.667,0,0,0,1.333-3.307,13.773,13.773,0,0,1-.52-1.747c-.067-.293-.12-.6-.16-.907a4,4,0,0,0-4-3.32h-4a4,4,0,0,0-4,4.547A25.333,25.333,0,0,0,22.064,26.494h.507a3.993,3.993,0,0,0,4-4.013v-4a4,4,0,0,0-3.293-3.867Zm.667,8a1.333,1.333,0,0,1-.453,1,1.413,1.413,0,0,1-1.093.333A22.667,22.667,0,0,1,2.784,4.24a1.453,1.453,0,0,1,.333-1.093,1.333,1.333,0,0,1,1-.453h4A1.333,1.333,0,0,1,9.451,3.747q.08.547.2,1.08a14.827,14.827,0,0,0,.613,2.067L8.4,7.76a1.333,1.333,0,0,0-.653,1.773,19.32,19.32,0,0,0,9.333,9.333,1.39,1.39,0,0,0,1.773-.693l.827-1.867a18.253,18.253,0,0,0,2.107.613q.533.12,1.08.2a1.333,1.333,0,0,1,1.053,1.333Z" transform="translate(0)" fill="#fafafa"/></svg>