<svg xmlns="http://www.w3.org/2000/svg" width="24" height="19.492" viewBox="0 0 24 19.492"><path d="M21.533,7.112c.015.213.015.426.015.64A13.9,13.9,0,0,1,7.553,21.746,13.9,13.9,0,0,1,0,19.538a10.176,10.176,0,0,0,1.188.061,9.851,9.851,0,0,0,6.107-2.1,4.927,4.927,0,0,1-4.6-3.411,6.2,6.2,0,0,0,.929.076,5.2,5.2,0,0,0,1.294-.167A4.919,4.919,0,0,1,.975,9.168V9.107A4.954,4.954,0,0,0,3.2,9.731,4.926,4.926,0,0,1,1.675,3.152,13.981,13.981,0,0,0,11.817,8.3,5.553,5.553,0,0,1,11.7,7.173a4.923,4.923,0,0,1,8.513-3.365A9.684,9.684,0,0,0,23.33,2.619,4.906,4.906,0,0,1,21.167,5.33,9.861,9.861,0,0,0,24,4.569a10.573,10.573,0,0,1-2.467,2.543Z" transform="translate(0 -2.254)" fill="#f51c1c"/></svg>