<svg xmlns="http://www.w3.org/2000/svg" width="16.487" height="21.429" viewBox="0 0 16.487 21.429"><path d="M8.759.3C4.354.3,0,3.241,0,7.994c0,3.023,1.7,4.74,2.731,4.74.425,0,.67-1.185.67-1.52,0-.4-1.018-1.249-1.018-2.911A5.8,5.8,0,0,1,8.411,2.4c2.924,0,5.088,1.662,5.088,4.714,0,2.28-.914,6.556-3.877,6.556a1.906,1.906,0,0,1-1.984-1.881c0-1.623,1.133-3.194,1.133-4.869C8.771,4.083,4.74,4.6,4.74,8.033a5.044,5.044,0,0,0,.412,2.177c-.592,2.55-1.8,6.35-1.8,8.978,0,.811.116,1.61.193,2.421.146.163.073.146.3.064C6,18.711,5.925,18.131,6.9,14.254A3.482,3.482,0,0,0,9.879,15.8c4.56,0,6.608-4.444,6.608-8.449C16.487,3.087,12.8.3,8.759.3Z" transform="translate(0 -0.305)" fill="#f51c1c"/></svg>