<svg xmlns="http://www.w3.org/2000/svg" width="11.001" height="11.001" viewBox="0 0 11.001 11.001">
  <path id="Icon_awesome-user-circle" data-name="Icon awesome-user-circle" d="M5.5.313a5.5,5.5,0,1,0,5.5,5.5A5.5,5.5,0,0,0,5.5.313Zm0,2.129A1.952,1.952,0,1,1,3.549,4.394,1.952,1.952,0,0,1,5.5,2.442Zm0,7.63A4.25,4.25,0,0,1,2.251,8.559,2.473,2.473,0,0,1,4.436,7.232a.543.543,0,0,1,.157.024A2.937,2.937,0,0,0,5.5,7.41a2.925,2.925,0,0,0,.907-.153.543.543,0,0,1,.157-.024A2.473,2.473,0,0,1,8.75,8.559,4.25,4.25,0,0,1,5.5,10.071Z" transform="translate(0 -0.313)" fill="#f51c1c"/>
</svg>
