<svg xmlns="http://www.w3.org/2000/svg" width="24" height="24" viewBox="0 0 24 24"><path d="M0,0H24V24H0Z" fill="#f51c1c" opacity="0"/><path d="M19.874,6.5c-.64-1.11-4.16-6.68-10.14-6.5C4.2.144,1,5,.134,6.5a1,1,0,0,0,0,1c.63,1.09,4,6.5,9.89,6.5h.25c5.53-.14,8.74-5,9.6-6.5a1,1,0,0,0,0-1ZM10.224,12c-4.31.1-7.12-3.59-8-5,1-1.61,3.61-4.9,7.61-5,4.29-.11,7.11,3.59,8,5-1.03,1.61-3.61,4.9-7.61,5Z" transform="translate(1.996 4.996)" fill="#f51c1c"/><path d="M3.5,0A3.5,3.5,0,1,0,5.975,1.025,3.5,3.5,0,0,0,3.5,0Zm0,5a1.5,1.5,0,1,1,1.061-.439A1.5,1.5,0,0,1,3.5,5Z" transform="translate(8.5 8.5)" fill="#f51c1c"/></svg>