<svg id="Group_546" data-name="Group 546" xmlns="http://www.w3.org/2000/svg" width="21.479" height="18.939" viewBox="0 0 21.479 18.939">
  <path id="Path_131" data-name="Path 131" d="M8.629,11.089A1.033,1.033,0,0,0,9.149,9.7L8.3,7.918a1.036,1.036,0,0,0-1.352-.5A11.937,11.937,0,0,0,3.206,9.841,9.053,9.053,0,0,0,.693,13.809,21.762,21.762,0,0,0,0,19.908v5.319a1.043,1.043,0,0,0,1.04,1.04h6.81a1.043,1.043,0,0,0,1.04-1.04v-6.81a1.043,1.043,0,0,0-1.04-1.04H4.592A7.306,7.306,0,0,1,5.8,13.168,6.586,6.586,0,0,1,8.629,11.089Z" transform="translate(0 -7.328)" fill="#f1f1f1"/>
  <path id="Path_132" data-name="Path 132" d="M79.312,11.172a1.033,1.033,0,0,0,.52-1.386l-.849-1.767a1.036,1.036,0,0,0-1.352-.5,12.552,12.552,0,0,0-3.725,2.408,9.248,9.248,0,0,0-2.53,3.985,21.47,21.47,0,0,0-.676,6.082v5.319a1.043,1.043,0,0,0,1.04,1.04h6.81a1.043,1.043,0,0,0,1.04-1.04V18.5a1.043,1.043,0,0,0-1.04-1.04H75.274a7.307,7.307,0,0,1,1.213-4.211A6.585,6.585,0,0,1,79.312,11.172Z" transform="translate(-58.45 -7.411)" fill="#f1f1f1"/>
</svg>
